<svg xmlns="http://www.w3.org/2000/svg" viewBox="919.108 31 82.635 80"><defs><style>.a{fill:#555;}</style></defs><g transform="translate(919.108 31)"><path class="a" d="M41.337,80c-.9,0-1.732,0-2.6-.038C15.4,79.322,3.577,70.023.866,67.576a4.853,4.853,0,0,1-.6-.564L0,66.748V51.313l.151.151c1.506-2.334,4.819-3.991,8.659-3.991,5.27,0,9.563,3.087,9.563,6.852v7.717a68.545,68.545,0,0,0,7.19,1.845c.113.038.188.038.3.075.264.037.565.113.829.151.188.037.339.075.527.113.075,0,.188.037.3.037.527.113,1.054.189,1.581.264h.113a68.07,68.07,0,0,0,7.379.753c.3,0,.565.037.866.037a3.423,3.423,0,0,0,.6.038c.414,0,.866.037,1.28.037H41.3a75.489,75.489,0,0,0,22.965-3.35V54.325c0-3.765,4.292-6.852,9.563-6.852,3.84,0,7.153,1.619,8.659,3.991.038.075.113.188.151.264V66.748l-.264.264C81.882,67.539,69.5,79.962,41.525,80ZM1.92,56.734V66A35.141,35.141,0,0,0,8.4,70.513h.038c.264.151.565.3.828.452.075.038.188.113.263.151.226.113.414.226.64.339a4.092,4.092,0,0,0,.414.226c.151.075.339.189.527.264.264.113.565.264.828.377a1.851,1.851,0,0,1,.264.113c.264.113.489.226.753.339.151.075.3.151.49.226a.539.539,0,0,1,.226.075A62.156,62.156,0,0,0,24.847,76.5c.113.037.188.037.3.075a1.9,1.9,0,0,1,.452.075c.226.038.414.075.64.113h.075a83.129,83.129,0,0,0,11.746,1.28h.264a3.844,3.844,0,0,0,.64.038,7.606,7.606,0,0,0,.941.037h1.431c14.231,0,24.282-3.388,30.193-6.212a38.435,38.435,0,0,0,9.223-5.948h.075v-10.2a38.493,38.493,0,0,1-5.421,3.652q-1.468.847-3.275,1.694c-6.664,3.125-16.753,6.212-30.72,6.212-.64,0-1.243-.037-1.883-.037h-.376c-.6-.037-1.167-.037-1.77-.075h-.339c-.527,0-1.091-.037-1.619-.075h-.188c-.565-.037-1.129-.113-1.694-.15-.113,0-.264-.038-.376-.038-.564-.037-1.092-.075-1.619-.151-.113,0-.189-.037-.264-.037-.489-.075-.979-.113-1.43-.188-.113,0-.188-.038-.3-.038L28.085,66.3c-.113-.038-.264-.038-.376-.075-.49-.113-.941-.188-1.431-.264a1.606,1.606,0,0,0-.188-.038l-1.242-.226c-.113-.038-.264-.038-.377-.075a12.844,12.844,0,0,1-1.28-.264c-.151-.038-.263-.075-.414-.113a9.893,9.893,0,0,0-1.017-.264c-.15-.038-.264-.075-.414-.113a8.542,8.542,0,0,1-1.054-.264,3.468,3.468,0,0,0-.49-.15c-.376-.113-.715-.189-1.054-.3-.151-.037-.339-.113-.49-.151l-.678-.226c-.226-.075-.414-.151-.64-.226-.264-.113-.527-.188-.753-.264a3.285,3.285,0,0,1-.564-.188c-.151-.075-.3-.113-.452-.188-.339-.113-.64-.226-.941-.339l-.339-.113q-1.017-.4-1.92-.791c-.037,0-.075-.038-.113-.038-.715-.339-1.431-.64-2.071-.979H9.751c-.263-.151-.527-.264-.791-.414-.038,0-.075-.037-.113-.037-.264-.113-.489-.264-.715-.376-.075-.038-.113-.038-.151-.075-.527-.3-1.016-.565-1.506-.866-.037,0-.037-.038-.075-.038-.226-.15-.489-.3-.715-.452-.037-.037-.075-.037-.113-.075-.226-.15-.452-.3-.64-.414a.286.286,0,0,1-.151-.075,4.934,4.934,0,0,0-.565-.377c-.037-.037-.113-.075-.15-.113A5.468,5.468,0,0,1,3.577,57c-.037-.037-.113-.075-.151-.113-.15-.113-.264-.188-.414-.3-.038-.037-.113-.075-.151-.113-.113-.113-.264-.188-.377-.3l-.113-.113-.452-.339ZM66,61.477c1.129-.414,2.184-.791,3.125-1.2A9.175,9.175,0,0,1,66,58.24Zm-52.48-1.2c.037,0,.037.037.075.037.941.376,1.957.791,3.049,1.167V58.24A9.175,9.175,0,0,1,13.515,60.273Zm52.518-5.948c0,2.3,2.3,4.254,5.459,4.894.038,0,.038-.038.075-.038a36.36,36.36,0,0,0,9.487-6.212l.226-.226C80.264,50.71,77.29,49.2,73.826,49.2,69.5,49.2,66,51.5,66.033,54.325ZM1.393,52.743l.226.226a31.442,31.442,0,0,0,7.228,5.045c.075.037.189.113.264.151.264.15.527.264.791.414a3.091,3.091,0,0,0,.49.264l.678.339c.037,0,.075.038.113.038,3.162-.678,5.459-2.6,5.459-4.894,0-2.824-3.5-5.12-7.831-5.12C5.346,49.2,2.41,50.673,1.393,52.743ZM40.245,74.88h-.715l-.075-.339a.848.848,0,0,0,.376-.037c.075-.038.113-.075.113-.151l.075-2.522c-.113.226-.377.715-.716,1.393s-.64,1.2-.791,1.581l-.15.075-1.506-3.238-.075,2.635a.2.2,0,0,0,.075.151.545.545,0,0,0,.339.075l.075.338c-.489-.037-.791-.037-.9-.037h-.64l-.075-.339c.338,0,.527-.075.527-.188l.113-3.238q0-.226-.452-.226l-.075-.339c.49.038.791.038.979.038h.414a9.635,9.635,0,0,0,.376.941,8.615,8.615,0,0,0,.377.791,9.885,9.885,0,0,0,.677,1.43,10.237,10.237,0,0,0,.452-.941c.113-.3.264-.527.339-.715a3.768,3.768,0,0,0,.263-.564c.189-.527.339-.828.339-.9l.6.038h.678l.075.339a.852.852,0,0,0-.377.037c-.037.037-.113.075-.113.151l-.113,3.238a.2.2,0,0,0,.075.151.543.543,0,0,0,.339.075l.075.339C40.734,74.88,40.4,74.88,40.245,74.88Zm1.431-.339c.339,0,.527-.113.527-.226l-.075-3.238c0-.15-.151-.226-.452-.188l-.075-.339h.979a1.421,1.421,0,0,0,.414-.037.631.631,0,0,0,.075.188c.075.075.113.151.15.188a.665.665,0,0,0,.151.188.793.793,0,0,1,.151.226c.037.075.113.113.188.226.263.338.452.527.49.6s.226.264.489.6a6.087,6.087,0,0,0,.527.6l-.075-2.372a.2.2,0,0,0-.075-.151c-.037-.037-.15-.037-.338-.037l-.075-.339h.9a4.939,4.939,0,0,0,.64-.037l.075.339c-.339,0-.527.113-.527.226l.113,3.8a.611.611,0,0,0-.264,0c-.113,0-.189,0-.226.037L42.73,71.643l.075,2.673a.2.2,0,0,0,.075.151c.038.038.151.038.339.038l.075.338h-.9a4.877,4.877,0,0,0-.64.038Zm5.044-.151a.806.806,0,0,0,.377-.075.15.15,0,0,0,.075-.15l-.226-3.238a.2.2,0,0,0-.075-.151.739.739,0,0,0-.339-.038l-.113-.3c.49-.037.828-.037.979-.037a6.689,6.689,0,0,0,.715-.075l.113.3a.814.814,0,0,0-.377.075c-.075.037-.075.075-.075.151L48,74.09a.2.2,0,0,0,.075.151c.037.037.151.037.339.037l.113.3c-.489.038-.828.038-.979.038a6.565,6.565,0,0,0-.715.075Zm2.071-.113a.707.707,0,0,0,.339-.151l.188-.188a1.266,1.266,0,0,0,.113-.3l.865-3.5.527-.075,1.807,3.313a.656.656,0,0,0,.263.339c.075.075.188.075.339.075l.113.3c-.188,0-.489.037-.9.075s-.715.075-.9.113l-.075-.3c.226-.038.339-.038.376-.075s.075-.075.075-.113-.037-.075-.037-.15l-.49-.866-1.318.15-.188.753v.113c0,.075.075.151.188.226a.888.888,0,0,0,.489.075l.113.339-1.092.075-.715.113Zm1.28-1.732,1.016-.113-.715-1.242ZM32.678,74.5a2.341,2.341,0,0,1-1.582-.753,2.007,2.007,0,0,1-.489-1.581,2.259,2.259,0,0,1,.828-1.544,2.164,2.164,0,0,1,1.732-.489,2.248,2.248,0,0,1,1.544.753,2.248,2.248,0,0,1-.339,3.162,2.064,2.064,0,0,1-1.366.47A3.091,3.091,0,0,1,32.678,74.5Zm-.6-3.614a2.359,2.359,0,0,0,0,2.824,1.319,1.319,0,0,0,.866.376,1,1,0,0,0,.9-.376,2.052,2.052,0,0,0,.452-1.092,2.8,2.8,0,0,0-.226-1.43,1.3,1.3,0,0,0-1.055-.678,1.328,1.328,0,0,0-.136-.007A1.017,1.017,0,0,0,32.075,70.89Zm-4.969,2.861a3.865,3.865,0,0,1-1.356-.527v-.49a3.224,3.224,0,0,1,.038-.64h.452a2.477,2.477,0,0,0,.3.9.89.89,0,0,0,.565.339.818.818,0,0,0,.565-.075.615.615,0,0,0,.263-.414.571.571,0,0,0-.113-.49,2.551,2.551,0,0,0-.452-.452c-.188-.151-.377-.264-.565-.414a1.531,1.531,0,0,1-.452-.527,1,1,0,0,1-.113-.678.991.991,0,0,1,.565-.753,1.74,1.74,0,0,1,1.092-.113,2.969,2.969,0,0,1,1.129.452,1.409,1.409,0,0,1-.038.527,5.884,5.884,0,0,1-.113.6l-.376-.075a.867.867,0,0,0-.791-1.092.523.523,0,0,0-.414.075.55.55,0,0,0-.226.339.524.524,0,0,0,.075.414,1.436,1.436,0,0,0,.339.338l.452.339c.151.113.3.264.452.377a.959.959,0,0,1,.3.452,1.46,1.46,0,0,1,.075.564,1.164,1.164,0,0,1-.565.828,1.46,1.46,0,0,1-.779.217A1.768,1.768,0,0,1,27.106,73.751Zm27.52-3.464a1.376,1.376,0,0,0-.3-.339.368.368,0,0,0-.339-.037l-.113-.3c.189-.038.49-.075.941-.151s.715-.151.866-.188l.113.3a.861.861,0,0,0-.376.113c-.038.038-.075.075-.038.113a.138.138,0,0,1,.038.113l1.43,2.334.377-2.485v-.113c0-.075-.075-.151-.188-.188a.95.95,0,0,0-.49-.038l-.113-.3.9-.113.715-.151.113.3a.876.876,0,0,0-.414.264,1.357,1.357,0,0,0-.151.414L57,73.412l-.489.075ZM23.153,73a2.275,2.275,0,0,1-1.318-.677,1.334,1.334,0,0,1-.188-1.28l.49-2.184a.337.337,0,0,0-.038-.188.819.819,0,0,0-.3-.113v-.338c.452.113.791.188.979.226s.414.075.715.151v.339a1.715,1.715,0,0,0-.376-.038c-.075,0-.113.075-.113.151l-.49,2.108a1.077,1.077,0,0,0,.828,1.468.8.8,0,0,0,.715-.151,1.552,1.552,0,0,0,.414-.791L24.96,69.5a.34.34,0,0,0-.038-.188.828.828,0,0,0-.3-.113v-.339c.452.113.753.188.866.226a4.355,4.355,0,0,0,.6.113v.339a1.715,1.715,0,0,0-.376-.038.121.121,0,0,0-.113.113l-.489,2.146c-.279.868-.737,1.3-1.457,1.3A2.317,2.317,0,0,1,23.153,73Zm35.915-.3a1.266,1.266,0,0,0,.376-.151.165.165,0,0,0,.038-.188l-.753-3.125c0-.075-.037-.113-.113-.151s-.188,0-.339.038l-.151-.3c.49-.113.791-.15.979-.226a6.29,6.29,0,0,1,.716-.188l.15.3a1.265,1.265,0,0,0-.376.151.341.341,0,0,0-.037.188l.753,3.125c0,.075.038.113.113.151s.189,0,.339-.038l.151.3c-.49.113-.791.15-.979.226a6.279,6.279,0,0,1-.715.188Zm2.221-.49q.508-.169.452-.339l-.9-3.087c-.037-.151-.188-.151-.489-.075l-.151-.3c.452-.113.791-.226.941-.264a.878.878,0,0,0,.376-.151c0,.037.075.113.151.151.075.075.15.113.188.15a.8.8,0,0,0,.188.151.794.794,0,0,0,.226.151c.075.037.15.113.226.151.339.264.565.376.64.452.075.037.3.226.64.452s.564.414.64.452l-.678-2.3a.508.508,0,0,0-.113-.151c-.037-.037-.188,0-.339.038l-.15-.3c.452-.113.753-.188.865-.226s.3-.113.6-.188l.151.3q-.508.169-.452.339l1.092,3.727c-.075,0-.15.038-.264.038-.075.037-.15.037-.226.075l-3.351-2.372.753,2.6a.516.516,0,0,0,.113.151c.038.037.188,0,.339-.037l.151.3c-.452.113-.753.188-.866.226a6.287,6.287,0,0,1-.6.188Zm-42.917-.564c-.226-.075-.452-.151-.753-.226l.037-.339a1.16,1.16,0,0,0,.414.075c.075,0,.113-.037.151-.113l.979-3.2-.188-.075a1.305,1.305,0,0,0-.715-.075c-.113.037-.226.226-.377.527l-.264-.075a3.37,3.37,0,0,1,.113-.6c.075-.188.15-.377.226-.527a1.9,1.9,0,0,0,.49.188l2.485.753a2.328,2.328,0,0,0,.6.113c-.075.264-.113.489-.15.64a2.025,2.025,0,0,1-.226.527l-.264-.113a1.047,1.047,0,0,0-.037-.64,1.669,1.669,0,0,0-.6-.3l-.3-.113-.979,3.2a.166.166,0,0,0,.037.188.707.707,0,0,0,.339.15v.339A8.259,8.259,0,0,0,18.372,71.643Zm-2.447-.753c-.113-.037-.339-.113-.64-.226a.533.533,0,0,0-.075-.226c-.037-.113-.037-.226-.075-.339-.038-.151-.075-.376-.189-.753-.075-.376-.15-.64-.188-.828l-.376-.151-.452,1.2a.17.17,0,0,0,0,.188.712.712,0,0,0,.3.151l-.037.339c-.452-.188-.753-.3-.9-.376a3.489,3.489,0,0,0-.677-.226l.037-.339a.9.9,0,0,0,.376.075c.075,0,.113-.038.151-.113l1.129-3.012a.172.172,0,0,0,0-.188.726.726,0,0,0-.3-.151l.037-.339a4.94,4.94,0,0,0,.791.3l.866.3a1.913,1.913,0,0,1,.979.678.917.917,0,0,1,.113.979,1.178,1.178,0,0,1-1.2.753,2.747,2.747,0,0,1,.15.6c.189.715.3,1.092.339,1.167a.684.684,0,0,0,.414.376v.377Zm-.753-4.442-.6,1.619.226.113a.87.87,0,0,0,.753,0A.86.86,0,0,0,16,67.615a.714.714,0,0,0,0-.678.891.891,0,0,0-.489-.414,1.654,1.654,0,0,0-.315-.09C15.18,66.432,15.172,66.437,15.172,66.447Zm51.689,3.878a1.95,1.95,0,0,1-1.167-1.2,2.148,2.148,0,0,1,.037-1.807,2.7,2.7,0,0,1,1.431-1.2,4.027,4.027,0,0,1,1.016-.226c.188-.038.377-.075.527-.113a1.341,1.341,0,0,1,.226.414c.075.188.151.414.226.64l-.414.113a1.163,1.163,0,0,0-.339-.452,1.346,1.346,0,0,0-1.2,0,1.294,1.294,0,0,0-.828.828,2.048,2.048,0,0,0,.113,1.318,1.875,1.875,0,0,0,.866,1.054,1.442,1.442,0,0,0,1.242.113,1.361,1.361,0,0,0,.9-1.318l.414-.075a3.526,3.526,0,0,1,.038.527c0,.339,0,.452-.038.489a2.681,2.681,0,0,1-1.242.828,2.632,2.632,0,0,1-1.008.208A2.523,2.523,0,0,1,66.861,70.325Zm-55.68-1.318c-.15-.075-.376-.151-.678-.264l.075-.339a1.224,1.224,0,0,0,.377.113c.075,0,.113-.037.15-.113l1.318-2.937a.17.17,0,0,0,0-.188.927.927,0,0,0-.263-.188l.075-.339c.452.188.753.339.9.414s.376.15.677.264l-.075.339a1.233,1.233,0,0,0-.377-.113c-.075,0-.113.038-.15.113L11.9,68.706a.172.172,0,0,0,0,.188.933.933,0,0,0,.264.188l-.075.339C11.633,69.233,11.332,69.082,11.181,69.008Zm59.445,0a.866.866,0,0,0,.339-.226A.337.337,0,0,0,71,68.593l-1.318-2.937c-.038-.075-.075-.113-.151-.113a.507.507,0,0,0-.3.075l-.188-.264c.452-.188.753-.3.9-.377s.376-.188.64-.3l.188.264a.646.646,0,0,0-.339.226c-.037.075-.075.113-.037.188l1.318,2.936c.037.075.075.113.151.113a.506.506,0,0,0,.3-.075l.188.264c-.452.188-.753.3-.9.376s-.376.188-.64.3Zm2.786-1.28a.929.929,0,0,0,.339-.264.17.17,0,0,0,0-.188L72.207,64.3l-.188.075a1.042,1.042,0,0,0-.564.452,1.5,1.5,0,0,0,.075.64l-.226.151c-.113-.151-.226-.339-.339-.527a3.552,3.552,0,0,1-.226-.565,4.187,4.187,0,0,0,.489-.188l2.334-1.2a2.107,2.107,0,0,0,.527-.339,5.516,5.516,0,0,1,.339.565,2.168,2.168,0,0,1,.188.527l-.264.075c-.188-.264-.339-.414-.452-.414a2.034,2.034,0,0,0-.6.226l-.3.15L74.541,66.9c.038.075.075.113.151.113a.868.868,0,0,0,.339-.113l.226.264a9.179,9.179,0,0,1-.941.452c-.189.113-.414.226-.678.376ZM8.019,67.464l.452-3.689a.848.848,0,0,0-.037-.452.452.452,0,0,0-.264-.264l.075-.3a6.812,6.812,0,0,0,.828.452,5.7,5.7,0,0,0,.791.376l-.113.3a.824.824,0,0,0-.376-.151c-.075,0-.113.038-.113.075-.037.038-.037.075-.037.151l-.3,2.711,1.845-1.732c.038-.037.075-.075.075-.113a.237.237,0,0,0-.037-.264.786.786,0,0,0-.376-.3l.075-.3.941.452.678.339-.113.3a.758.758,0,0,0-.49-.037,1.74,1.74,0,0,0-.376.264L8.471,67.69ZM40.81,58.729c-14.645-8.772-22.588-19.878-23.6-33.054,0-.188-.038-.414-.038-.6a38.175,38.175,0,0,1,.038-5.082,43.264,43.264,0,0,1,.564-4.367q.451-2.316,1.129-4.631c.339-1.2.753-2.41,1.2-3.576.527-1.356,1.129-2.711,1.769-4.028.037-.113.113-.188.151-.3l.452-.9.866.49A15.7,15.7,0,0,0,40.7.49L41.3,0l.6.452A15.942,15.942,0,0,0,59.294,2.635l.866-.489.452.9a44.164,44.164,0,0,1,4.894,22.023,35.3,35.3,0,0,1-4.48,15.21,35.744,35.744,0,0,1-2.259,3.576c-.64.9-1.356,1.807-2.108,2.711a35.685,35.685,0,0,1-2.824,3.049c-.828.828-1.732,1.619-2.635,2.409-1.054.9-2.146,1.769-3.275,2.635-1.92,1.393-3.953,2.748-6.137,4.066l-.489.3Zm.49-1.957a56.717,56.717,0,0,0,5.2-3.5L19.313,27.633C20.932,39.115,28.311,48.9,41.3,56.772ZM19.012,21.647l30.8,29.026c.9-.791,1.807-1.581,2.635-2.41L19.426,17.129A36.663,36.663,0,0,0,19.012,21.647Zm1.431-9.261L55.228,45.214c.753-.866,1.468-1.807,2.146-2.711L21.61,8.772C21.158,9.976,20.781,11.181,20.443,12.386ZM59.558,38.927a33.234,33.234,0,0,0,4.028-14A41.026,41.026,0,0,0,59.332,4.706a17.682,17.682,0,0,1-18-2.3,17.808,17.808,0,0,1-18,2.334Zm-11.37-11.9a.549.549,0,0,1,.075-.151,3.6,3.6,0,0,0,1.845-.527c.113-.075.226-.151.377-.264a3.175,3.175,0,0,0,1.2-1.732c-.151,0-.339-.037-.527-.037a7.112,7.112,0,0,1-4.706-1.845,6.724,6.724,0,0,1-1.92-5.045,6.725,6.725,0,0,1,2.108-5.12,7.6,7.6,0,0,1,1.581-1.129,3.355,3.355,0,0,1,.64-.3,4.45,4.45,0,0,1,.6-1.092l.038-.075a4.581,4.581,0,0,1,2.033-1.619,4.686,4.686,0,0,1,1.167-.377,1.956,1.956,0,0,1,.414-.075A4.064,4.064,0,0,1,53.8,7.6a5.647,5.647,0,0,1,.791.075.556.556,0,0,1-.075.151,3.6,3.6,0,0,0-1.845.527c-.113.075-.226.15-.376.264a3.408,3.408,0,0,0-1.2,1.769,2.863,2.863,0,0,1,.564-.037h.3a13.559,13.559,0,0,1,2.748.339c1.092.226,1.694.338,1.845.338a3.054,3.054,0,0,1,.151,1.28,19.443,19.443,0,0,1-.113,2.033l-.527-.075a3.879,3.879,0,0,0-.64-1.731,2.939,2.939,0,0,0-1.43-.979,5.92,5.92,0,0,0-2.259-.376H51.5a2.47,2.47,0,0,0-.527.038c0,.376,0,.791.038,1.2a2,2,0,0,0,.037.49,8.18,8.18,0,0,0,.414,1.581,7.233,7.233,0,0,0,.414,1.017l.037.113c.038.075.075.188.113.264.489.979.979,1.957,1.468,2.974a7.447,7.447,0,0,1,.753,3.087,3.967,3.967,0,0,1-.075.941,2.767,2.767,0,0,0,.452-.264.517.517,0,0,0,.151-.113,1.367,1.367,0,0,0,.414-.979V20.066a1.161,1.161,0,0,0-.414-1.054,2.117,2.117,0,0,0-.678-.188c-.037-.075-.037-.113-.075-.188l-.339-.678c.528.037,1.055.037,1.694.037,1.129,0,2.071-.037,2.711.038l.151.828a1.928,1.928,0,0,0-1.167.226c-.188.15-.264.527-.264,1.054v1.506q0,1.468-.113,1.468a8.439,8.439,0,0,1-2.334.941,3.9,3.9,0,0,1-.64.15,4.427,4.427,0,0,1-.414.716L53.271,25a4.587,4.587,0,0,1-2.033,1.619,4.686,4.686,0,0,1-1.167.376h-.037a1.331,1.331,0,0,1-.377.075,4.058,4.058,0,0,1-.677.038A5.653,5.653,0,0,1,48.188,27.031Zm-.113-14.344c-.037.075-.113.113-.151.189a6.338,6.338,0,0,0-1.355,4.1A7.125,7.125,0,0,0,48,21.572,4.674,4.674,0,0,0,51.388,23.3h.527c0-.339,0-.753-.037-1.167a10.347,10.347,0,0,0-.188-1.054c-.075-.3-.113-.527-.189-.753,0-.037-.037-.075-.037-.113s-.037-.113-.037-.151a9.785,9.785,0,0,0-.414-1.017c-.113-.188-.188-.376-.3-.564-.3-.565-.715-1.393-1.355-2.786a7.316,7.316,0,0,1-.753-3.087V12.2A3.247,3.247,0,0,0,48.075,12.687Z" transform="translate(0 0)"/></g></svg>